<?xml version="1.0" encoding="utf-8"?>
<!-- Generator: Adobe Illustrator 16.0.0, SVG Export Plug-In . SVG Version: 6.00 Build 0)  -->
<!DOCTYPE svg PUBLIC "-//W3C//DTD SVG 1.1//EN" "http://www.w3.org/Graphics/SVG/1.1/DTD/svg11.dtd">
<svg version="1.1" id="Layer_1" xmlns="http://www.w3.org/2000/svg" xmlns:xlink="http://www.w3.org/1999/xlink" x="0px" y="0px"
	 width="1418.372px" height="248.954px" viewBox="0 0 1418.372 248.954" enable-background="new 0 0 1418.372 248.954"
	 xml:space="preserve">
<g>
	<g>
		<polygon points="215.597,186.717 107.795,248.954 0,186.717 0,62.24 107.795,0 215.597,62.24 		"/>
		<polygon fill="#FFFFFF" points="152.229,86.226 152.229,86.22 63.37,86.22 63.37,86.226 63.367,86.22 30.237,105.348 
			30.237,143.607 63.367,162.734 96.495,143.607 96.495,117.698 119.102,117.698 119.102,143.607 152.227,162.734 185.359,143.607 
			185.359,105.348 		"/>
	</g>
	<g>
		<path d="M309.354,159.915c-1.201,0.891-2.804,2.129-4.812,3.715c-2.008,1.592-3.951,2.857-5.828,3.797
			c-2.609,1.358-5.125,2.401-7.55,3.129s-5.828,1.097-10.21,1.097c-3.599,0-7.015-0.679-10.248-2.036
			c-3.234-1.353-6.077-3.26-8.527-5.709c-2.347-2.4-4.225-5.361-5.633-8.881c-1.408-3.52-2.111-7.234-2.111-11.146
			c0-6.051,1.276-11.199,3.833-15.452c2.554-4.253,6.596-7.626,12.125-10.13c4.901-2.243,10.691-3.797,17.368-4.655
			c6.675-0.863,13.872-1.499,21.592-1.917v-2.819c0-3.438-0.521-6.219-1.564-8.332c-1.044-2.112-2.504-3.742-4.382-4.888
			c-1.877-1.2-4.173-1.993-6.885-2.385c-2.711-0.391-5.502-0.587-8.37-0.587c-3.391,0-7.381,0.506-11.97,1.526
			c-4.589,1.016-9.181,2.488-13.769,4.416h-0.861V83.716c2.711-0.782,6.598-1.64,11.657-2.58c5.058-0.939,10.065-1.406,15.02-1.406
			c5.998,0,11.057,0.467,15.177,1.406c4.12,0.94,7.824,2.635,11.11,5.084c3.18,2.401,5.554,5.508,7.118,9.31
			c1.566,3.808,2.348,8.452,2.348,13.927v59.769h-14.629V159.915z M309.354,147.711v-24.252c-3.496,0.314-7.916,0.744-13.26,1.292
			c-5.348,0.549-9.663,1.32-12.948,2.309c-3.912,1.2-7.146,3.036-9.701,5.513c-2.557,2.478-3.833,5.938-3.833,10.369
			c0,5.008,1.408,8.788,4.224,11.341c2.816,2.559,6.935,3.835,12.361,3.835c4.641,0,8.84-1.005,12.594-3.015
			C302.548,153.099,306.068,150.633,309.354,147.711z"/>
		<path d="M449.781,81.842l-22.139,87.383h-13.614l-21.357-67.356l-21.202,67.356h-13.533l-22.375-87.383h15.334l15.411,67.672
			l20.732-67.672h12.126l21.281,67.672l14.551-67.672H449.781z"/>
		<path d="M500.71,171.262c-13.924,0-24.735-3.927-32.429-11.775c-7.691-7.849-11.537-18.994-11.537-33.442
			c0-14.241,3.726-25.571,11.187-33.996c7.457-8.419,17.209-12.634,29.257-12.634c5.426,0,10.222,0.782,14.396,2.347
			c4.171,1.564,7.824,4.02,10.953,7.354c3.129,3.34,5.529,7.419,7.197,12.242c1.667,4.829,2.504,10.733,2.504,17.724v7.979h-60.551
			c0,10.168,2.553,17.94,7.664,23.313c5.111,5.372,12.178,8.061,21.205,8.061c3.232,0,6.398-0.364,9.505-1.098
			c3.102-0.728,5.904-1.667,8.408-2.818c2.661-1.195,4.902-2.357,6.729-3.482c1.825-1.118,3.335-2.172,4.536-3.166h0.86v16.039
			c-1.719,0.679-3.859,1.526-6.415,2.542c-2.555,1.016-4.85,1.814-6.884,2.385c-2.868,0.782-5.464,1.385-7.783,1.803
			C507.189,171.05,504.254,171.262,500.71,171.262z M517.919,115.795c-0.103-3.965-0.573-7.382-1.407-10.249
			c-0.836-2.868-2.034-5.296-3.601-7.278c-1.719-2.189-3.921-3.856-6.61-5.003c-2.684-1.146-6.01-1.722-9.973-1.722
			c-3.911,0-7.237,0.587-9.975,1.76c-2.74,1.173-5.228,2.884-7.471,5.122c-2.188,2.298-3.861,4.84-5.008,7.631
			c-1.146,2.787-1.876,6.035-2.188,9.739H517.919z"/>
		<path d="M570.728,171.338c-5.842,0-11.306-0.782-16.39-2.347s-9.299-3.231-12.634-5.008v-16.507h0.782
			c1.249,0.994,2.724,2.086,4.418,3.286s3.952,2.455,6.768,3.754c2.504,1.151,5.255,2.167,8.253,3.052
			c2.998,0.891,6.116,1.331,9.348,1.331c2.347,0,4.851-0.271,7.512-0.82c2.662-0.549,4.642-1.238,5.945-2.075
			c1.825-1.2,3.142-2.477,3.952-3.834c0.809-1.353,1.211-3.39,1.211-6.1c0-3.492-0.95-6.127-2.854-7.903
			c-1.904-1.771-5.282-3.259-10.133-4.459c-1.876-0.467-4.329-1.016-7.354-1.641c-3.025-0.63-5.814-1.304-8.37-2.036
			c-6.675-1.929-11.525-4.916-14.551-8.957s-4.536-8.93-4.536-14.671c0-7.87,2.971-14.284,8.918-19.243
			c5.945-4.954,13.845-7.431,23.703-7.431c4.851,0,9.728,0.598,14.63,1.798c4.902,1.2,9.022,2.716,12.359,4.541v15.724h-0.782
			c-3.753-2.977-7.941-5.322-12.558-7.044c-4.614-1.723-9.269-2.58-13.964-2.58c-4.85,0-8.943,1.016-12.281,3.052
			c-3.337,2.032-5.008,5.111-5.008,9.229c0,3.655,0.991,6.377,2.974,8.175c1.98,1.803,5.163,3.275,9.546,4.421
			c2.189,0.576,4.627,1.136,7.313,1.684c2.686,0.549,5.516,1.185,8.487,1.918c6.469,1.618,11.33,4.302,14.592,8.055
			c3.259,3.759,4.891,8.869,4.891,15.333c0,3.759-0.744,7.316-2.232,10.679c-1.486,3.367-3.664,6.246-6.532,8.646
			c-3.131,2.607-6.662,4.59-10.6,5.948C581.615,170.658,576.672,171.338,570.728,171.338z"/>
		<path d="M690.501,125.571c0,14.709-3.547,26.066-10.641,34.072c-7.093,8.006-16.533,12.009-28.32,12.009
			c-12.15,0-21.709-4.133-28.673-12.4c-6.96-8.267-10.442-19.493-10.442-33.681c0-14.6,3.585-25.946,10.757-34.028
			c7.169-8.088,16.626-12.129,28.358-12.129c11.787,0,21.227,4.03,28.32,12.091C686.954,99.56,690.501,110.917,690.501,125.571z
			 M675.325,125.571c0-11.313-2.064-19.728-6.181-25.229c-4.123-5.502-9.988-8.25-17.604-8.25c-7.667,0-13.573,2.748-17.717,8.25
			c-4.147,5.502-6.219,13.916-6.219,25.229c0,10.956,2.072,19.261,6.219,24.92c4.144,5.66,10.051,8.484,17.717,8.484
			c7.561,0,13.416-2.775,17.566-8.332C673.25,145.093,675.325,136.733,675.325,125.571z"/>
		<path d="M804.797,169.225v-50.535c0-4.019-0.155-7.734-0.467-11.15c-0.315-3.417-0.967-6.089-1.956-8.018
			c-1.045-2.085-2.531-3.622-4.459-4.616c-1.931-0.988-4.541-1.488-7.824-1.488c-3.025,0-6.271,0.929-9.741,2.781
			c-3.468,1.852-7.053,4.524-10.755,8.017c0.049,0.885,0.114,1.944,0.196,3.166c0.076,1.229,0.114,2.678,0.114,4.346v57.498h-14.706
			v-50.535c0-4.019-0.155-7.734-0.47-11.15c-0.312-3.417-0.967-6.089-1.955-8.018c-1.043-2.085-2.531-3.622-4.459-4.616
			c-1.929-0.988-4.536-1.488-7.822-1.488c-3.183,0-6.523,0.994-10.016,2.977s-6.884,4.508-10.168,7.588v65.243h-14.708V81.842
			h14.708v9.701c3.856-3.861,7.678-6.85,11.46-8.957c3.78-2.112,7.941-3.172,12.477-3.172c5.165,0,9.739,1.174,13.73,3.52
			c3.99,2.353,7.029,6.209,9.114,11.58c4.432-4.953,8.761-8.706,12.987-11.265c4.223-2.553,8.813-3.835,13.769-3.835
			c3.753,0,7.17,0.587,10.247,1.76c3.077,1.174,5.766,3.069,8.058,5.677c2.352,2.655,4.161,5.969,5.437,9.934
			c1.282,3.965,1.917,8.946,1.917,14.942v57.498H804.797z"/>
		<path d="M878.101,171.262c-13.927,0-24.735-3.927-32.426-11.775s-11.537-18.994-11.537-33.442
			c0-14.241,3.726-25.571,11.184-33.996c7.458-8.419,17.212-12.634,29.26-12.634c5.426,0,10.222,0.782,14.394,2.347
			s7.827,4.02,10.955,7.354c3.129,3.34,5.524,7.419,7.197,12.242c1.667,4.829,2.504,10.733,2.504,17.724v7.979H849.08
			c0,10.168,2.553,17.94,7.664,23.313c5.111,5.372,12.178,8.061,21.2,8.061c3.237,0,6.403-0.364,9.505-1.098
			c3.107-0.728,5.91-1.667,8.414-2.818c2.656-1.195,4.899-2.357,6.724-3.482c1.825-1.118,3.34-2.172,4.541-3.166h0.858v16.039
			c-1.722,0.679-3.856,1.526-6.415,2.542c-2.553,1.016-4.851,1.814-6.882,2.385c-2.868,0.782-5.464,1.385-7.783,1.803
			C884.581,171.05,881.647,171.262,878.101,171.262z M895.313,115.795c-0.103-3.965-0.576-7.382-1.407-10.249
			c-0.836-2.868-2.037-5.296-3.601-7.278c-1.722-2.189-3.927-3.856-6.61-5.003c-2.689-1.146-6.013-1.722-9.973-1.722
			c-3.916,0-7.24,0.587-9.978,1.76s-5.23,2.884-7.468,5.122c-2.194,2.298-3.862,4.84-5.008,7.631
			c-1.146,2.787-1.879,6.035-2.188,9.739H895.313z"/>
		<path d="M965.016,125.338h-44.12v-14.16h44.12V125.338z"/>
		<path d="M1017.433,171.18c-6.001,0-11.504-0.923-16.506-2.775c-5.008-1.852-9.31-4.654-12.911-8.408
			c-3.598-3.758-6.39-8.489-8.373-14.203c-1.982-5.708-2.971-12.422-2.971-20.14c0-7.67,1.032-14.291,3.091-19.874
			c2.059-5.578,4.812-10.271,8.253-14.079c3.444-3.808,7.729-6.74,12.867-8.804c5.139-2.059,10.651-3.091,16.55-3.091
			c4.796,0,9.424,0.679,13.883,2.036c4.459,1.358,8.435,2.923,11.933,4.693v16.507h-0.863c-1.043-0.886-2.385-1.901-4.025-3.053
			c-1.646-1.146-3.639-2.319-5.985-3.52c-2.037-1.043-4.438-1.956-7.197-2.737c-2.765-0.782-5.426-1.174-7.984-1.174
			c-7.615,0-13.726,2.884-18.342,8.647c-4.617,5.763-6.925,13.91-6.925,24.447c0,10.325,2.232,18.369,6.692,24.132
			c4.459,5.763,10.651,8.647,18.576,8.647c4.801,0,9.364-0.994,13.693-2.977s8.164-4.535,11.499-7.664h0.863v16.507
			c-1.461,0.679-3.286,1.499-5.476,2.466c-2.194,0.961-4.176,1.678-5.947,2.15c-2.504,0.728-4.747,1.287-6.729,1.679
			C1023.114,170.984,1020.562,171.18,1017.433,171.18z"/>
		<path d="M1102.941,97.643h-0.782c-1.097-0.31-2.259-0.505-3.481-0.587c-1.228-0.075-2.699-0.113-4.422-0.113
			c-3.965,0-7.902,0.857-11.813,2.579c-3.911,1.723-7.615,4.275-11.107,7.664v62.039h-14.709V81.842h14.709v12.987
			c5.371-4.747,10.053-8.099,14.04-10.054c3.992-1.955,7.864-2.934,11.618-2.934c1.516,0,2.645,0.038,3.405,0.114
			c0.755,0.082,1.603,0.196,2.542,0.354V97.643z"/>
		<path d="M1183.051,81.842l-47.021,119.613h-15.724l15.647-36.456l-31.764-83.157h15.882l23.861,64.695l23.784-64.695H1183.051z"/>
		<path d="M1217.785,171.338c-5.844,0-11.303-0.782-16.392-2.347c-5.084-1.564-9.294-3.231-12.634-5.008v-16.507h0.782
			c1.255,0.994,2.727,2.086,4.421,3.286c1.695,1.2,3.949,2.455,6.768,3.754c2.504,1.151,5.253,2.167,8.256,3.052
			c2.998,0.891,6.111,1.331,9.348,1.331c2.347,0,4.851-0.271,7.507-0.82c2.661-0.549,4.644-1.238,5.947-2.075
			c1.825-1.2,3.14-2.477,3.949-3.834c0.809-1.353,1.216-3.39,1.216-6.1c0-3.492-0.955-6.127-2.856-7.903
			c-1.906-1.771-5.279-3.259-10.13-4.459c-1.879-0.467-4.329-1.016-7.354-1.641c-3.025-0.63-5.817-1.304-8.37-2.036
			c-6.681-1.929-11.531-4.916-14.551-8.957c-3.025-4.041-4.541-8.93-4.541-14.671c0-7.87,2.977-14.284,8.919-19.243
			c5.947-4.954,13.851-7.431,23.703-7.431c4.851,0,9.728,0.598,14.633,1.798c4.899,1.2,9.021,2.716,12.362,4.541v15.724h-0.782
			c-3.759-2.977-7.941-5.322-12.558-7.044c-4.617-1.723-9.271-2.58-13.965-2.58c-4.851,0-8.945,1.016-12.281,3.052
			c-3.34,2.032-5.008,5.111-5.008,9.229c0,3.655,0.989,6.377,2.972,8.175c1.982,1.803,5.165,3.275,9.543,4.421
			c2.194,0.576,4.628,1.136,7.316,1.684c2.683,0.549,5.513,1.185,8.489,1.918c6.464,1.618,11.33,4.302,14.59,8.055
			c3.258,3.759,4.888,8.869,4.888,15.333c0,3.759-0.744,7.316-2.227,10.679c-1.488,3.367-3.667,6.246-6.534,8.646
			c-3.129,2.607-6.665,4.59-10.603,5.948C1228.671,170.658,1223.733,171.338,1217.785,171.338z"/>
		<path d="M1292.105,170.946c-8.033,0-14.291-2.281-18.777-6.844s-6.729-11.775-6.729-21.634V94.047h-9.935V81.842h9.935V56.727
			h14.709v25.115h27.07v12.205h-27.07v41.54c0,4.433,0.081,7.849,0.233,10.25c0.157,2.395,0.761,4.638,1.803,6.724
			c0.886,1.831,2.32,3.199,4.303,4.112c1.982,0.912,4.665,1.368,8.055,1.368c2.4,0,4.72-0.353,6.963-1.059
			c2.243-0.701,3.862-1.293,4.851-1.76h0.863v13.22c-2.765,0.782-5.567,1.396-8.413,1.842
			C1297.124,170.724,1294.501,170.946,1292.105,170.946z"/>
		<path d="M1368.065,159.915c-1.2,0.891-2.803,2.129-4.813,3.715c-2.004,1.592-3.948,2.857-5.828,3.797
			c-2.606,1.358-5.122,2.401-7.55,3.129c-2.422,0.728-5.828,1.097-10.206,1.097c-3.601,0-7.017-0.679-10.249-2.036
			c-3.231-1.353-6.078-3.26-8.527-5.709c-2.347-2.4-4.226-5.361-5.633-8.881c-1.406-3.52-2.112-7.234-2.112-11.146
			c0-6.051,1.276-11.199,3.834-15.452c2.554-4.253,6.6-7.626,12.124-10.13c4.904-2.243,10.694-3.797,17.369-4.655
			c6.676-0.863,13.873-1.499,21.591-1.917v-2.819c0-3.438-0.521-6.219-1.564-8.332c-1.043-2.112-2.504-3.742-4.378-4.888
			c-1.879-1.2-4.177-1.993-6.887-2.385c-2.711-0.391-5.502-0.587-8.37-0.587c-3.39,0-7.382,0.506-11.972,1.526
			c-4.589,1.016-9.179,2.488-13.769,4.416h-0.858V83.716c2.711-0.782,6.594-1.64,11.656-2.58c5.057-0.939,10.064-1.406,15.019-1.406
			c5.996,0,11.059,0.467,15.181,1.406c4.117,0.94,7.821,2.635,11.107,5.084c3.178,2.401,5.557,5.508,7.121,9.31
			c1.564,3.808,2.346,8.452,2.346,13.927v59.769h-14.632V159.915z M1368.065,147.711v-24.252c-3.493,0.314-7.914,0.744-13.259,1.292
			c-5.344,0.549-9.662,1.32-12.948,2.309c-3.911,1.2-7.143,3.036-9.701,5.513c-2.553,2.478-3.835,5.938-3.835,10.369
			c0,5.008,1.413,8.788,4.227,11.341c2.818,2.559,6.936,3.835,12.361,3.835c4.639,0,8.838-1.005,12.596-3.015
			C1361.26,153.099,1364.779,150.633,1368.065,147.711z"/>
		<path d="M1418.372,169.225h-14.708V47.499h14.708V169.225z"/>
	</g>
</g>
</svg>
