<?xml version="1.0" encoding="utf-8"?>
<!-- Generator: Adobe Illustrator 16.0.0, SVG Export Plug-In . SVG Version: 6.00 Build 0)  -->
<!DOCTYPE svg PUBLIC "-//W3C//DTD SVG 1.1//EN" "http://www.w3.org/Graphics/SVG/1.1/DTD/svg11.dtd">
<svg version="1.1" id="Layer_1" xmlns="http://www.w3.org/2000/svg" xmlns:xlink="http://www.w3.org/1999/xlink" x="0px" y="0px"
	 width="812.824px" height="399.669px" viewBox="0 0 812.824 399.669" enable-background="new 0 0 812.824 399.669"
	 xml:space="preserve">
<g>
	<polygon points="520.701,197.958 406.408,263.94 292.124,197.958 292.124,65.984 406.408,0 520.701,65.984 	"/>
	<polygon fill="#FFFFFF" points="453.518,91.415 453.518,91.41 359.308,91.41 359.308,91.415 359.306,91.41 324.181,111.688 
		324.181,152.251 359.306,172.53 394.43,152.251 394.43,124.784 418.396,124.784 418.396,152.251 453.518,172.53 488.644,152.251 
		488.644,111.688 	"/>
	<g>
		<path d="M38.351,370.659c-0.838,0.621-1.957,1.485-3.358,2.597c-1.404,1.109-2.76,1.993-4.071,2.648
			c-1.822,0.946-3.578,1.676-5.271,2.187c-1.694,0.507-4.071,0.765-7.131,0.765c-2.513,0-4.898-0.476-7.156-1.421
			c-2.259-0.945-4.244-2.277-5.955-3.99c-1.639-1.674-2.951-3.74-3.933-6.199C0.491,364.785,0,362.19,0,359.46
			c0-4.226,0.891-7.819,2.677-10.79c1.784-2.968,4.607-5.327,8.468-7.075c3.421-1.564,7.465-2.648,12.129-3.25
			c4.661-0.602,9.688-1.047,15.077-1.339v-1.966c0-2.404-0.364-4.345-1.092-5.82c-0.729-1.475-1.749-2.611-3.06-3.413
			c-1.311-0.837-2.915-1.394-4.808-1.669c-1.895-0.271-3.842-0.408-5.846-0.408c-2.368,0-5.154,0.354-8.359,1.067
			c-3.205,0.708-6.41,1.737-9.615,3.084H4.971v-10.434c1.895-0.548,4.608-1.146,8.142-1.803c3.531-0.655,7.028-0.982,10.487-0.982
			c4.19,0,7.724,0.327,10.6,0.982c2.877,0.656,5.464,1.84,7.759,3.553c2.22,1.673,3.878,3.842,4.971,6.5
			c1.092,2.659,1.639,5.899,1.639,9.724v41.741H38.351V370.659z M38.351,362.136v-16.937c-2.441,0.218-5.527,0.52-9.258,0.901
			c-3.734,0.383-6.748,0.923-9.043,1.613c-2.731,0.837-4.989,2.122-6.774,3.853c-1.785,1.728-2.676,4.144-2.676,7.238
			c0,3.497,0.982,6.139,2.949,7.921c1.966,1.785,4.844,2.676,8.633,2.676c3.242,0,6.174-0.7,8.794-2.102
			C33.598,365.898,36.056,364.176,38.351,362.136z"/>
		<path d="M136.417,316.138l-15.46,61.024h-9.507l-14.915-47.038L81.73,377.162h-9.452l-15.625-61.024h10.71l10.761,47.256
			l14.478-47.256h8.469l14.86,47.256l10.162-47.256H136.417z"/>
		<path d="M171.983,378.583c-9.724,0-17.274-2.743-22.646-8.224c-5.373-5.482-8.058-13.266-8.058-23.355
			c0-9.944,2.604-17.855,7.811-23.737c5.208-5.882,12.021-8.822,20.434-8.822c3.788,0,7.138,0.545,10.052,1.639
			c2.912,1.089,5.463,2.802,7.649,5.134c2.185,2.332,3.861,5.182,5.025,8.551c1.166,3.369,1.749,7.495,1.749,12.374v5.572h-42.286
			c0,7.103,1.785,12.531,5.354,16.281c3.57,3.75,8.505,5.627,14.806,5.627c2.258,0,4.471-0.253,6.638-0.768
			c2.166-0.505,4.123-1.163,5.872-1.966c1.859-0.836,3.424-1.646,4.7-2.431c1.275-0.782,2.33-1.52,3.167-2.213h0.602v11.199
			c-1.201,0.475-2.696,1.066-4.479,1.777c-1.785,0.71-3.388,1.268-4.809,1.666c-2.002,0.547-3.816,0.965-5.435,1.257
			C176.508,378.435,174.46,378.583,171.983,378.583z M184.003,339.848c-0.073-2.768-0.402-5.154-0.984-7.159
			c-0.582-2-1.421-3.696-2.512-5.08c-1.203-1.529-2.741-2.695-4.617-3.495c-1.875-0.802-4.199-1.203-6.966-1.203
			c-2.73,0-5.053,0.411-6.966,1.228c-1.911,0.822-3.651,2.016-5.217,3.58c-1.529,1.604-2.696,3.381-3.498,5.327
			c-0.799,1.948-1.31,4.218-1.528,6.803H184.003z"/>
		<path d="M220.879,378.638c-4.08,0-7.896-0.547-11.445-1.639c-3.551-1.095-6.493-2.261-8.824-3.498v-11.528h0.547
			c0.874,0.693,1.902,1.456,3.085,2.298c1.184,0.836,2.759,1.71,4.726,2.618c1.749,0.803,3.67,1.511,5.764,2.132
			c2.093,0.621,4.27,0.928,6.529,0.928c1.639,0,3.388-0.188,5.245-0.574c1.859-0.381,3.242-0.863,4.151-1.445
			c1.275-0.837,2.194-1.73,2.76-2.679c0.564-0.945,0.848-2.366,0.848-4.263c0-2.436-0.666-4.277-1.995-5.515
			c-1.331-1.238-3.688-2.277-7.075-3.114c-1.312-0.327-3.022-0.713-5.135-1.148c-2.113-0.437-4.062-0.911-5.846-1.421
			c-4.664-1.347-8.05-3.432-10.162-6.253c-2.113-2.825-3.169-6.238-3.169-10.246c0-5.498,2.075-9.979,6.229-13.439
			c4.151-3.458,9.67-5.188,16.553-5.188c3.386,0,6.792,0.418,10.216,1.258c3.424,0.836,6.3,1.894,8.631,3.168v10.981h-0.546
			c-2.622-2.079-5.544-3.719-8.768-4.919c-3.223-1.2-6.475-1.805-9.752-1.805c-3.386,0-6.247,0.713-8.577,2.134
			s-3.495,3.57-3.495,6.446c0,2.55,0.69,4.451,2.074,5.708c1.385,1.258,3.608,2.288,6.667,3.087
			c1.528,0.404,3.231,0.792,5.108,1.174c1.875,0.384,3.852,0.829,5.929,1.339c4.515,1.129,7.912,3.006,10.188,5.627
			c2.276,2.624,3.415,6.191,3.415,10.709c0,2.621-0.519,5.109-1.557,7.458c-1.039,2.347-2.56,4.362-4.562,6.035
			c-2.185,1.822-4.653,3.208-7.403,4.154C228.483,378.162,225.031,378.638,220.879,378.638z"/>
		<path d="M304.521,346.675c0,10.272-2.477,18.202-7.428,23.794c-4.955,5.589-11.548,8.387-19.778,8.387
			c-8.487,0-15.161-2.887-20.024-8.659c-4.861-5.772-7.294-13.612-7.294-23.521c0-10.196,2.504-18.118,7.513-23.765
			c5.006-5.644,11.61-8.466,19.805-8.466c8.23,0,14.823,2.812,19.778,8.441C302.044,328.51,304.521,336.441,304.521,346.675z
			 M293.924,346.675c0-7.902-1.439-13.773-4.316-17.618c-2.877-3.842-6.976-5.763-12.292-5.763c-5.355,0-9.479,1.921-12.375,5.763
			c-2.896,3.845-4.343,9.716-4.343,17.618c0,7.648,1.447,13.451,4.343,17.402c2.896,3.95,7.019,5.926,12.375,5.926
			c5.28,0,9.37-1.938,12.265-5.817S293.924,354.472,293.924,346.675z"/>
		<path d="M384.341,377.162v-35.295c0-2.802-0.11-5.396-0.328-7.783c-0.218-2.386-0.674-4.253-1.365-5.602
			c-0.73-1.458-1.767-2.53-3.114-3.221c-1.349-0.693-3.17-1.04-5.464-1.04c-2.113,0-4.379,0.649-6.8,1.941
			c-2.425,1.292-4.927,3.158-7.513,5.6c0.037,0.618,0.082,1.356,0.138,2.21c0.054,0.859,0.082,1.869,0.082,3.033v40.156h-10.272
			v-35.295c0-2.802-0.109-5.396-0.327-7.783c-0.22-2.386-0.674-4.253-1.368-5.602c-0.728-1.458-1.765-2.53-3.113-3.221
			c-1.347-0.693-3.167-1.04-5.462-1.04c-2.223,0-4.553,0.691-6.994,2.075c-2.439,1.386-4.809,3.151-7.101,5.3v45.565h-10.272
			v-61.024h10.272v6.772c2.694-2.693,5.36-4.78,8.003-6.253c2.64-1.476,5.545-2.213,8.712-2.213c3.608,0,6.802,0.816,9.588,2.455
			c2.786,1.642,4.909,4.338,6.366,8.088c3.094-3.461,6.118-6.082,9.069-7.867c2.949-1.785,6.154-2.676,9.616-2.676
			c2.623,0,5.007,0.408,7.156,1.228c2.148,0.819,4.026,2.142,5.626,3.961c1.643,1.856,2.905,4.171,3.797,6.938
			c0.895,2.771,1.338,6.246,1.338,10.435v40.156H384.341z"/>
		<path d="M435.53,378.583c-9.723,0-17.273-2.743-22.643-8.224c-5.374-5.482-8.059-13.266-8.059-23.355
			c0-9.944,2.603-17.855,7.813-23.737c5.206-5.882,12.016-8.822,20.433-8.822c3.787,0,7.134,0.545,10.051,1.639
			c2.913,1.089,5.465,2.802,7.648,5.134s3.859,5.182,5.025,8.551c1.168,3.369,1.748,7.495,1.748,12.374v5.572h-42.283
			c0,7.103,1.782,12.531,5.354,16.281c3.57,3.75,8.504,5.627,14.804,5.627c2.258,0,4.471-0.253,6.64-0.768
			c2.168-0.505,4.124-1.163,5.871-1.966c1.856-0.836,3.426-1.646,4.698-2.431c1.275-0.782,2.332-1.52,3.169-2.213h0.602v11.199
			c-1.201,0.475-2.695,1.066-4.479,1.777c-1.787,0.71-3.386,1.268-4.807,1.666c-2.006,0.547-3.817,0.965-5.437,1.257
			C440.056,378.435,438.009,378.583,435.53,378.583z M447.552,339.848c-0.074-2.768-0.401-5.154-0.982-7.159
			c-0.585-2-1.422-3.696-2.513-5.08c-1.203-1.529-2.743-2.695-4.617-3.495c-1.879-0.802-4.201-1.203-6.966-1.203
			c-2.732,0-5.055,0.411-6.966,1.228c-1.914,0.822-3.651,2.016-5.219,3.58c-1.529,1.604-2.695,3.381-3.497,5.327
			c-0.8,1.948-1.31,4.218-1.527,6.803H447.552z"/>
		<path d="M496.229,346.511h-30.814v-9.887h30.814V346.511z"/>
		<path d="M532.831,378.526c-4.188,0-8.03-0.646-11.525-1.938c-3.498-1.292-6.501-3.25-9.016-5.872
			c-2.516-2.624-4.461-5.931-5.848-9.916c-1.384-3.988-2.074-8.68-2.074-14.068c0-5.354,0.718-9.979,2.158-13.877
			c1.438-3.899,3.359-7.174,5.764-9.835c2.403-2.659,5.398-4.706,8.985-6.145c3.59-1.44,7.438-2.158,11.556-2.158
			c3.352,0,6.584,0.473,9.698,1.421c3.114,0.945,5.892,2.039,8.333,3.277v11.528h-0.604c-0.728-0.622-1.663-1.33-2.812-2.132
			c-1.146-0.802-2.54-1.619-4.179-2.461c-1.421-0.728-3.1-1.363-5.025-1.91c-1.931-0.545-3.792-0.817-5.575-0.817
			c-5.316,0-9.587,2.01-12.813,6.035c-3.221,4.025-4.832,9.716-4.832,17.073c0,7.211,1.555,12.83,4.669,16.855
			c3.114,4.022,7.44,6.035,12.976,6.035c3.353,0,6.535-0.693,9.561-2.077c3.022-1.384,5.701-3.169,8.03-5.354h0.604v11.528
			c-1.022,0.473-2.298,1.047-3.825,1.721c-1.532,0.673-2.913,1.176-4.153,1.505c-1.75,0.505-3.314,0.901-4.696,1.174
			C536.802,378.39,535.017,378.526,532.831,378.526z"/>
		<path d="M592.546,327.173h-0.547c-0.763-0.218-1.574-0.356-2.431-0.411c-0.856-0.054-1.887-0.079-3.085-0.079
			c-2.77,0-5.52,0.6-8.25,1.8c-2.73,1.203-5.32,2.988-7.761,5.354v43.325h-10.269v-61.024h10.269v9.067
			c3.753-3.313,7.022-5.656,9.808-7.021c2.787-1.364,5.49-2.047,8.114-2.047c1.055,0,1.847,0.024,2.377,0.079
			c0.527,0.055,1.118,0.139,1.774,0.247V327.173z"/>
		<path d="M648.489,316.138l-32.835,83.531h-10.981l10.927-25.457l-22.18-58.074h11.09l16.665,45.179l16.607-45.179H648.489z"/>
		<path d="M672.748,378.638c-4.079,0-7.896-0.547-11.446-1.639c-3.55-1.095-6.49-2.261-8.822-3.498v-11.528h0.545
			c0.876,0.693,1.9,1.456,3.089,2.298c1.184,0.836,2.758,1.71,4.724,2.618c1.747,0.803,3.668,1.511,5.765,2.132
			c2.095,0.621,4.271,0.928,6.528,0.928c1.639,0,3.386-0.188,5.242-0.574c1.862-0.381,3.243-0.863,4.154-1.445
			c1.274-0.837,2.193-1.73,2.758-2.679c0.564-0.945,0.847-2.366,0.847-4.263c0-2.436-0.664-4.277-1.995-5.515
			c-1.327-1.238-3.684-2.277-7.072-3.114c-1.31-0.327-3.023-0.713-5.137-1.148c-2.112-0.437-4.061-0.911-5.845-1.421
			c-4.661-1.347-8.05-3.432-10.162-6.253c-2.114-2.825-3.168-6.238-3.168-10.246c0-5.498,2.076-9.979,6.228-13.439
			c4.151-3.458,9.67-5.188,16.554-5.188c3.387,0,6.793,0.418,10.216,1.258c3.424,0.836,6.301,1.894,8.635,3.168v10.981h-0.547
			c-2.622-2.079-5.548-3.719-8.771-4.919c-3.224-1.2-6.471-1.805-9.754-1.805c-3.386,0-6.245,0.713-8.574,2.134
			c-2.332,1.421-3.496,3.57-3.496,6.446c0,2.55,0.691,4.451,2.075,5.708c1.384,1.258,3.606,2.288,6.664,3.087
			c1.531,0.404,3.232,0.792,5.108,1.174c1.877,0.384,3.853,0.829,5.927,1.339c4.518,1.129,7.914,3.006,10.188,5.627
			c2.277,2.624,3.417,6.191,3.417,10.709c0,2.621-0.521,5.109-1.555,7.458c-1.04,2.347-2.563,4.362-4.565,6.035
			c-2.183,1.822-4.653,3.208-7.401,4.154C680.351,378.162,676.899,378.638,672.748,378.638z"/>
		<path d="M724.648,378.362c-5.609,0-9.98-1.591-13.112-4.779s-4.701-8.224-4.701-15.105v-33.819h-6.936v-8.521h6.936v-17.539
			h10.273v17.539h18.902v8.521h-18.902v29.012c0,3.095,0.055,5.48,0.163,7.157c0.109,1.676,0.53,3.24,1.258,4.695
			c0.619,1.277,1.619,2.233,3.005,2.872c1.382,0.636,3.258,0.955,5.625,0.955c1.678,0,3.297-0.247,4.863-0.737
			c1.567-0.49,2.696-0.904,3.39-1.229h0.599v9.231c-1.931,0.547-3.887,0.973-5.871,1.284
			C728.153,378.207,726.322,378.362,724.648,378.362z"/>
		<path d="M777.695,370.659c-0.84,0.621-1.958,1.485-3.359,2.597c-1.401,1.109-2.758,1.993-4.069,2.648
			c-1.822,0.946-3.58,1.676-5.273,2.187c-1.693,0.507-4.069,0.765-7.129,0.765c-2.516,0-4.901-0.476-7.156-1.421
			c-2.261-0.945-4.246-2.277-5.954-3.99c-1.644-1.674-2.953-3.74-3.936-6.199c-0.985-2.46-1.476-5.055-1.476-7.785
			c0-4.226,0.892-7.819,2.679-10.79c1.782-2.968,4.606-5.327,8.466-7.075c3.424-1.564,7.466-2.648,12.13-3.25
			c4.659-0.602,9.688-1.047,15.078-1.339v-1.966c0-2.404-0.364-4.345-1.092-5.82c-0.728-1.475-1.748-2.611-3.06-3.413
			c-1.313-0.837-2.916-1.394-4.808-1.669c-1.896-0.271-3.845-0.408-5.847-0.408c-2.367,0-5.154,0.354-8.357,1.067
			c-3.208,0.708-6.411,1.737-9.617,3.084h-0.602v-10.434c1.896-0.548,4.607-1.146,8.14-1.803c3.534-0.655,7.03-0.982,10.491-0.982
			c4.188,0,7.721,0.327,10.6,0.982c2.876,0.656,5.461,1.84,7.758,3.553c2.218,1.673,3.879,3.842,4.971,6.5
			c1.094,2.659,1.639,5.899,1.639,9.724v41.741h-10.216V370.659z M777.695,362.136v-16.937c-2.441,0.218-5.528,0.52-9.261,0.901
			c-3.733,0.383-6.746,0.923-9.041,1.613c-2.732,0.837-4.99,2.122-6.775,3.853c-1.784,1.728-2.676,4.144-2.676,7.238
			c0,3.497,0.983,6.139,2.951,7.921c1.966,1.785,4.842,2.676,8.629,2.676c3.243,0,6.174-0.7,8.798-2.102
			C772.942,365.898,775.4,364.176,777.695,362.136z"/>
		<path d="M812.824,377.162h-10.273v-85.01h10.273V377.162z"/>
	</g>
</g>
</svg>
