<?xml version="1.0" encoding="utf-8"?>
<!-- Generator: Adobe Illustrator 16.0.0, SVG Export Plug-In . SVG Version: 6.00 Build 0)  -->
<!DOCTYPE svg PUBLIC "-//W3C//DTD SVG 1.1//EN" "http://www.w3.org/Graphics/SVG/1.1/DTD/svg11.dtd">
<svg version="1.1" id="Layer_1" xmlns="http://www.w3.org/2000/svg" xmlns:xlink="http://www.w3.org/1999/xlink" x="0px" y="0px"
	 width="1069.935px" height="193.88px" viewBox="0 0 1069.935 193.88" enable-background="new 0 0 1069.935 193.88"
	 xml:space="preserve">
<g>
	<g>
		<polygon points="167.902,145.413 83.949,193.88 0,145.413 0,48.47 83.949,0 167.902,48.47 		"/>
		<path fill="#FFFFFF" d="M145.903,94.368L114.8,63.265l-5.464,5.464l25.65,25.649h-5.07h-18.672h-5.708H89.548H78.356H62.368H51.69
			H37.989h-5.07l25.649-25.649l-5.464-5.464L22.001,94.368l0.01,0.01h-0.01v15.988v2.132v2.131c0,8.794,7.194,15.985,15.987,15.985
			h24.379c8.793,0,15.988-7.191,15.988-15.985v-2.131v-2.132v-8.261h11.192v8.261v2.132v2.131c0,8.794,7.194,15.985,15.987,15.985
			h24.38c8.792,0,15.987-7.191,15.987-15.985v-2.131v-2.132V94.378h-0.01L145.903,94.368z"/>
	</g>
	<g>
		<polygon points="310.57,105.573 297.017,73.086 287.598,73.086 274.809,105.573 261.657,73.086 252.852,73.086 271.44,120.504 
			278.103,120.504 278.026,120.427 278.179,120.504 292.269,85.4 307.201,120.504 313.939,120.504 331.866,73.086 323.06,73.086 		
			"/>
		<path d="M229.99,73.086H196.64v9.496h31.714c4.272,0,6.407,2.515,6.407,7.542v0.045h-30.716
			c-8.118,0.031-12.176,4.075-12.176,12.13v6.589c0,7.938,4.391,11.905,13.176,11.905h39.303V87.081
			C244.288,77.75,239.501,73.086,229.99,73.086z M207.772,111.252c-4.241,0-6.361-1.985-6.361-5.952h-0.046
			c0.03-3.727,2.333-5.59,6.907-5.59h26.511l0.024,11.542H207.772z"/>
		<path d="M375.434,73.086h-23.9c-9.541,0.03-14.313,4.801-14.313,14.313v19.357c0.091,9.268,4.862,13.948,14.313,14.038h36.077
			v-9.541h-34.396c-4.301,0.029-6.452-2.316-6.452-7.041v-4.317h42.984V84.989C389.654,77.114,384.884,73.147,375.434,73.086z
			 M380.159,90.169h-33.396v-0.726c0-4.543,2.423-6.816,7.271-6.816h21.401c3.149,0,4.74,1.198,4.77,3.59L380.159,90.169z"/>
		<path d="M439.181,91.942h-23.672c-3.181-0.031-4.771-1.637-4.771-4.817c0-3.09,1.575-4.65,4.726-4.681h37.803v-9.359h-37.757
			c-9.542,0-14.329,3.998-14.358,11.995v4.817c0.03,7.815,4.816,11.721,14.358,11.721h22.264c4.059,0.062,6.104,1.532,6.134,4.407
			c-0.122,3.485-2.181,5.243-6.18,5.271h-36.44v9.496h37.667c9.571,0,14.433-3.968,14.584-11.905v-4.677
			C453.509,96.032,448.723,91.942,439.181,91.942z"/>
		<path d="M500.702,73.086h-23.854c-9.512,0.03-14.313,4.801-14.403,14.313v21.22c0.03,8.057,4.801,12.13,14.313,12.22h23.9
			c9.632-0.09,14.464-4.041,14.494-11.856V87.398C515.061,77.856,510.245,73.086,500.702,73.086z M505.519,107.709
			c-0.03,2.394-2.181,3.588-6.452,3.588h-18.812c-5.543-0.028-8.3-1.651-8.27-4.86V88.67c0.06-4.028,2.166-6.059,6.316-6.089h21.127
			c4.059,0.03,6.089,2.061,6.089,6.089V107.709z"/>
		<path d="M583.17,73.131h-57.114l0.046,47.663h9.541V82.626h15.131c3.999,0.031,6.027,2.03,6.089,5.999v32.078h9.86V82.626h14.856
			c4.21,0.031,6.332,2.122,6.361,6.271l0.045,31.896h9.634v-33.35C597.589,77.932,592.771,73.161,583.17,73.131z"/>
		<path d="M646.055,73.086h-23.899c-9.541,0.03-14.313,4.801-14.313,14.313v19.357c0.092,9.268,4.862,13.948,14.313,14.038h36.076
			v-9.541h-34.396c-4.302,0.029-6.45-2.316-6.45-7.041V89.443c0-4.543,2.422-6.816,7.27-6.816h21.4c3.149,0,4.74,1.198,4.771,3.59
			l-0.045,3.953h-28.171v9.725h37.758V84.989C660.275,77.114,655.506,73.147,646.055,73.086z"/>
		<rect x="673.09" y="92.214" width="38.166" height="9.54"/>
		<path d="M723.979,87.081v19.039c0.029,9.724,4.8,14.612,14.312,14.674h33.306v-9.586h-29.808c-5.513-0.028-8.269-2.454-8.269-7.27
			V89.125c0.029-4.544,2.12-6.816,6.271-6.816h31.806v-9.223h-33.351C728.795,73.116,724.039,77.781,723.979,87.081z"/>
		<path d="M783.137,87.217v33.577h9.543V88.489c0.059-3.938,2.148-5.922,6.271-5.953h17.809v-9.406h-19.31
			C787.938,73.161,783.168,77.856,783.137,87.217z"/>
		<path d="M869.149,111.297h-26.762c-4.424-0.028-6.65-2.21-6.681-6.543V73.086h-9.587V106.8c0.061,9.3,4.831,13.964,14.313,13.993
			h28.717v3.546c-0.032,3.968-2.122,5.966-6.271,5.998h-27.172v9.54h28.67c9.481-0.061,14.252-4.831,14.313-14.313V73.086h-9.541
			V111.297z"/>
		<path d="M928.08,91.942h-23.672c-3.181-0.031-4.771-1.637-4.771-4.817c0-3.09,1.574-4.65,4.726-4.681h37.803v-9.359h-37.758
			c-9.542,0-14.329,3.998-14.359,11.995v4.817c0.03,7.815,4.817,11.721,14.359,11.721h22.265c4.058,0.062,6.104,1.532,6.133,4.407
			c-0.122,3.485-2.182,5.243-6.18,5.271h-36.438v9.496h37.666c9.571,0,14.433-3.968,14.586-11.905v-4.677
			C942.407,96.032,937.622,91.942,928.08,91.942z"/>
		<polygon points="975.198,54.003 965.656,54.003 965.656,72.904 951.344,72.904 951.344,82.492 965.656,82.492 965.656,120.793 
			975.198,120.793 975.198,82.445 989.51,82.445 989.51,72.904 975.198,72.904 		"/>
		<path d="M1034.948,73.086h-33.351v9.496h31.714c4.271,0,6.407,2.515,6.407,7.542v0.045h-30.717
			c-8.117,0.031-12.175,4.075-12.175,12.13v6.589c0,7.938,4.392,11.905,13.176,11.905h39.303V87.081
			C1049.245,77.75,1044.459,73.086,1034.948,73.086z M1012.729,111.252c-4.24,0-6.36-1.985-6.36-5.952h-0.045
			c0.029-3.727,2.332-5.59,6.906-5.59h26.499v-5.059l0.035,16.601H1012.729z"/>
		<rect x="1060.392" y="54.003" width="9.543" height="66.791"/>
	</g>
</g>
</svg>
