<?xml version="1.0" encoding="utf-8"?>
<!-- Generator: Adobe Illustrator 16.0.0, SVG Export Plug-In . SVG Version: 6.00 Build 0)  -->
<!DOCTYPE svg PUBLIC "-//W3C//DTD SVG 1.1//EN" "http://www.w3.org/Graphics/SVG/1.1/DTD/svg11.dtd">
<svg version="1.1" id="Layer_1" xmlns="http://www.w3.org/2000/svg" xmlns:xlink="http://www.w3.org/1999/xlink" x="0px" y="0px"
	 width="533.867px" height="244.816px" viewBox="0 0 533.867 244.816" enable-background="new 0 0 533.867 244.816"
	 xml:space="preserve">
<g>
	<g>
		<polygon points="343.941,133.383 266.931,177.841 189.927,133.383 189.927,44.459 266.931,0 343.941,44.459 		"/>
		<path fill="#FFFFFF" d="M323.759,86.561L295.23,58.032l-5.012,5.012l23.527,23.527h-4.65h-17.127h-5.236h-14.665H261.8h-14.665
			h-9.794h-12.568h-4.651l23.528-23.527l-5.012-5.012l-28.53,28.529l0.01,0.01h-0.01v14.665v1.956v1.955
			c0,8.066,6.599,14.664,14.665,14.664h22.363c8.066,0,14.665-6.598,14.665-14.664v-1.955v-1.956v-7.577h10.267v7.577v1.956v1.955
			c0,8.066,6.599,14.664,14.665,14.664h22.363c8.065,0,14.664-6.598,14.664-14.664v-1.955v-1.956V86.571h-0.01L323.759,86.561z"/>
	</g>
	<g>
		<polygon points="72.171,223.958 63.93,204.207 58.204,204.207 50.428,223.958 42.431,204.207 37.078,204.207 48.379,233.039 
			52.43,233.039 52.384,232.992 52.477,233.039 61.043,211.695 70.122,233.039 74.219,233.039 85.119,204.207 79.765,204.207 		"/>
		<path d="M23.178,204.207H2.9v5.773h19.283c2.597,0,3.896,1.529,3.896,4.586v0.027H7.403C2.468,214.613,0,217.072,0,221.97v4.006
			c0,4.826,2.67,7.238,8.011,7.238h23.896v-20.498C31.871,207.042,28.96,204.207,23.178,204.207z M9.669,227.412
			c-2.579,0-3.868-1.205-3.868-3.617H5.773c0.018-2.266,1.418-3.398,4.199-3.398h16.119l0.015,7.016H9.669z"/>
		<path d="M111.608,204.207H97.077c-5.801,0.02-8.702,2.92-8.702,8.703v11.768c0.055,5.637,2.956,8.48,8.702,8.537h21.935v-5.803
			H98.099c-2.615,0.02-3.923-1.408-3.923-4.281v-2.625h26.134v-9.061C120.254,206.656,117.354,204.244,111.608,204.207z
			 M114.481,214.593H94.176v-0.441c0-2.762,1.473-4.145,4.42-4.145h13.012c1.915,0,2.882,0.729,2.9,2.184L114.481,214.593z"/>
		<path d="M150.367,215.671h-14.393c-1.934-0.018-2.901-0.994-2.901-2.928c0-1.879,0.958-2.828,2.873-2.846h22.984v-5.691h-22.957
			c-5.802,0-8.712,2.432-8.73,7.293v2.93c0.018,4.75,2.928,7.127,8.73,7.127h13.537c2.468,0.037,3.711,0.93,3.729,2.68
			c-0.074,2.117-1.326,3.186-3.757,3.205h-22.156v5.773h22.902c5.819,0,8.775-2.412,8.868-7.238v-2.846
			C159.078,218.158,156.168,215.671,150.367,215.671z"/>
		<path d="M187.772,204.207h-14.503c-5.783,0.02-8.702,2.92-8.757,8.703v12.9c0.018,4.898,2.919,7.377,8.702,7.432h14.531
			c5.856-0.055,8.794-2.459,8.813-7.211V212.91C196.502,207.107,193.574,204.207,187.772,204.207z M190.701,225.257
			c-0.019,1.455-1.326,2.184-3.923,2.184H175.34c-3.37-0.02-5.046-1.004-5.028-2.957v-10.801c0.037-2.449,1.317-3.684,3.84-3.703
			h12.846c2.468,0.02,3.702,1.254,3.702,3.703V225.257z"/>
		<path d="M237.913,204.234h-34.726l0.028,28.98h5.801v-23.207h9.199c2.431,0.02,3.665,1.234,3.702,3.648v19.502h5.995v-23.15h9.034
			c2.56,0.02,3.849,1.291,3.868,3.813l0.027,19.395h5.857v-20.277C246.679,207.154,243.75,204.253,237.913,204.234z"/>
		<path d="M276.147,204.207h-14.531c-5.801,0.02-8.702,2.92-8.702,8.703v11.768c0.055,5.637,2.956,8.48,8.702,8.537h21.935v-5.803
			h-20.913c-2.615,0.02-3.923-1.408-3.923-4.281v-8.979c0-2.762,1.473-4.145,4.42-4.145h13.012c1.915,0,2.882,0.729,2.9,2.184
			l-0.027,2.402h-17.128v5.912h22.957v-9.061C284.793,206.656,281.893,204.244,276.147,204.207z"/>
		<rect x="292.584" y="215.837" width="23.206" height="5.801"/>
		<path d="M323.525,212.716v11.574c0.019,5.912,2.919,8.887,8.703,8.924h20.249v-5.83h-18.122c-3.353-0.018-5.028-1.492-5.028-4.42
			v-9.006c0.019-2.762,1.289-4.145,3.813-4.145h19.338v-5.607H332.2C326.454,204.226,323.562,207.062,323.525,212.716z"/>
		<path d="M359.494,212.798v20.416h5.801v-19.643c0.037-2.395,1.309-3.6,3.813-3.619h10.83v-5.719h-11.741
			C362.413,204.253,359.511,207.107,359.494,212.798z"/>
		<path d="M411.789,227.441h-16.271c-2.689-0.02-4.043-1.346-4.061-3.979v-19.256h-5.829v20.498c0.036,5.654,2.938,8.49,8.702,8.51
			h17.459v2.154c-0.018,2.412-1.289,3.629-3.813,3.646h-16.52v5.801h17.432c5.765-0.037,8.665-2.938,8.702-8.701v-31.908h-5.802
			V227.441z"/>
		<path d="M447.62,215.671h-14.393c-1.935-0.018-2.901-0.994-2.901-2.928c0-1.879,0.958-2.828,2.873-2.846h22.984v-5.691h-22.956
			c-5.802,0-8.712,2.432-8.729,7.293v2.93c0.018,4.75,2.928,7.127,8.729,7.127h13.536c2.469,0.037,3.711,0.93,3.73,2.68
			c-0.074,2.117-1.326,3.186-3.758,3.205H424.58v5.773h22.902c5.819,0,8.775-2.412,8.867-7.238v-2.846
			C456.332,218.158,453.421,215.671,447.62,215.671z"/>
		<polygon points="476.267,192.605 470.466,192.605 470.466,204.097 461.764,204.097 461.764,209.925 470.466,209.925 
			470.466,233.214 476.267,233.214 476.267,209.898 484.97,209.898 484.97,204.097 476.267,204.097 		"/>
		<path d="M512.595,204.207h-20.277v5.773h19.283c2.598,0,3.896,1.529,3.896,4.586v0.027h-18.675
			c-4.936,0.02-7.404,2.479-7.404,7.377v4.006c0,4.826,2.67,7.238,8.012,7.238h23.896v-20.498
			C521.289,207.042,518.378,204.207,512.595,204.207z M499.087,227.412c-2.579,0-3.868-1.205-3.868-3.617h-0.028
			c0.019-2.266,1.418-3.398,4.199-3.398h16.112v-3.076l0.021,10.092H499.087z"/>
		<rect x="528.066" y="192.605" width="5.801" height="40.609"/>
	</g>
</g>
</svg>
