<?xml version="1.0" encoding="utf-8"?>
<!-- Generator: Adobe Illustrator 16.0.0, SVG Export Plug-In . SVG Version: 6.00 Build 0)  -->
<!DOCTYPE svg PUBLIC "-//W3C//DTD SVG 1.1//EN" "http://www.w3.org/Graphics/SVG/1.1/DTD/svg11.dtd">
<svg version="1.1" id="Layer_1" xmlns="http://www.w3.org/2000/svg" xmlns:xlink="http://www.w3.org/1999/xlink" x="0px" y="0px"
	 width="550.434px" height="491.809px" viewBox="0 0 550.434 491.809" enable-background="new 0 0 550.434 491.809"
	 xml:space="preserve">
<g>
	<g>
		<polygon points="397.191,211.272 275.212,281.69 153.242,211.272 153.242,70.422 275.212,0 397.191,70.422 		"/>
		<path fill="#FFFFFF" d="M365.225,137.108l-45.188-45.189l-7.939,7.939l37.268,37.266h-7.367H314.87h-8.294h-23.229h-16.261
			h-23.229h-15.514h-19.907h-7.366l37.266-37.266l-7.939-7.939l-45.188,45.189l0.014,0.015h-0.014v23.228v3.098v3.098
			c0,12.775,10.453,23.224,23.228,23.224h35.421c12.776,0,23.229-10.449,23.229-23.224v-3.098v-3.098V148.35h16.261v12.001v3.098
			v3.098c0,12.775,10.454,23.224,23.229,23.224h35.422c12.774,0,23.227-10.449,23.227-23.224v-3.098v-3.098v-23.228h-0.014
			L365.225,137.108z"/>
	</g>
	<g>
		<g>
			<polygon points="139.46,358.033 123.538,319.866 112.472,319.866 97.445,358.033 81.992,319.866 71.647,319.866 93.487,375.577 
				101.314,375.577 101.226,375.488 101.403,375.577 117.958,334.335 135.502,375.577 143.42,375.577 164.481,319.866 
				154.134,319.866 			"/>
			<path d="M44.787,319.866H5.605v11.157h37.261c5.018,0,7.528,2.954,7.528,8.861v0.054h-36.09C4.77,339.973,0,344.725,0,354.192
				v7.738c0,9.327,5.159,13.987,15.481,13.987h46.176v-39.611C61.587,325.346,55.962,319.866,44.787,319.866z M18.683,364.707
				c-4.982,0-7.472-2.329-7.472-6.991h-0.054c0.035-4.378,2.74-6.567,8.114-6.567h31.147l0.028,13.559H18.683z"/>
			<path d="M215.667,319.866h-28.078c-11.211,0.035-16.816,5.641-16.816,16.816v22.741c0.107,10.889,5.713,16.387,16.816,16.494
				h42.386v-11.211h-40.412c-5.055,0.037-7.58-2.721-7.58-8.272v-5.073h50.5v-17.51
				C232.376,324.599,226.771,319.938,215.667,319.866z M221.219,339.938h-39.235v-0.854c0-5.34,2.845-8.009,8.541-8.009h25.143
				c3.701,0,5.57,1.409,5.605,4.219L221.219,339.938z"/>
			<path d="M290.565,342.02h-27.813c-3.738-0.035-5.605-1.923-5.605-5.656c0-3.632,1.851-5.466,5.552-5.501h44.414v-10.996h-44.36
				c-11.211,0-16.835,4.698-16.87,14.093v5.659c0.035,9.181,5.659,13.771,16.87,13.771h26.157c4.768,0.073,7.172,1.8,7.207,5.181
				c-0.143,4.094-2.563,6.156-7.26,6.194h-42.813v11.154h44.255c11.244,0,16.956-4.66,17.134-13.987v-5.496
				C307.397,346.824,301.775,342.02,290.565,342.02z"/>
			<path d="M362.845,319.866H334.82c-11.176,0.035-16.816,5.641-16.924,16.816v24.931c0.035,9.465,5.641,14.253,16.816,14.358
				h28.078c11.318-0.105,16.993-4.749,17.031-13.935v-25.354C379.715,325.47,374.056,319.866,362.845,319.866z M368.504,360.544
				c-0.035,2.813-2.563,4.22-7.58,4.22h-22.102c-6.513-0.038-9.752-1.942-9.715-5.713v-20.875c0.07-4.732,2.544-7.117,7.421-7.152
				h24.823c4.768,0.035,7.152,2.42,7.152,7.152V360.544z"/>
			<path d="M459.734,319.92h-67.101l0.054,55.998h11.208v-44.843h17.778c4.697,0.037,7.082,2.385,7.152,7.047v37.688h11.584v-44.735
				h17.458c4.944,0.037,7.438,2.492,7.472,7.367l0.054,37.476h11.318v-39.182C476.675,325.559,471.016,319.955,459.734,319.92z"/>
			<path d="M533.617,319.866h-28.078c-11.211,0.035-16.815,5.641-16.815,16.816v22.741c0.104,10.889,5.712,16.387,16.815,16.494
				h42.387v-11.211h-40.412c-5.055,0.037-7.58-2.721-7.58-8.272v-17.351c0-5.34,2.846-8.009,8.541-8.009h25.143
				c3.701,0,5.571,1.409,5.605,4.219l-0.053,4.645h-33.099v11.423h44.362v-17.51C550.326,324.599,544.721,319.938,533.617,319.866z"
				/>
		</g>
		<g>
			<path d="M71.988,429.778v22.368c0.035,11.423,5.64,17.171,16.816,17.243h39.13v-11.268H92.913
				c-6.476-0.032-9.715-2.882-9.715-8.538v-17.402c0.035-5.339,2.49-8.009,7.368-8.009h37.368v-10.837H88.75
				C77.646,413.373,72.06,418.853,71.988,429.778z"/>
			<path d="M141.493,429.939v39.45h11.208v-37.957c0.072-4.627,2.527-6.956,7.367-6.994h20.926V413.39h-22.686
				C147.133,413.424,141.525,418.94,141.493,429.939z"/>
			<path d="M242.546,458.232h-31.443c-5.197-0.035-7.813-2.6-7.846-7.689v-37.207h-11.265v39.61
				c0.07,10.927,5.676,16.406,16.816,16.443h33.737v4.163c-0.037,4.662-2.492,7.01-7.367,7.048h-31.922v11.208h33.684
				c11.141-0.072,16.744-5.678,16.816-16.816v-61.656h-11.211V458.232z"/>
			<path d="M311.785,435.491h-27.813c-3.738-0.037-5.605-1.923-5.605-5.662c0-3.628,1.851-5.46,5.552-5.498h44.414v-10.995h-44.36
				c-11.211,0-16.835,4.697-16.87,14.093v5.658c0.035,9.181,5.659,13.773,16.87,13.773h26.157c4.769,0.07,7.169,1.797,7.207,5.179
				c-0.146,4.093-2.563,6.158-7.261,6.193h-42.814v11.157h44.257c11.246,0,16.956-4.663,17.134-13.988v-5.498
				C328.617,440.294,322.996,435.491,311.785,435.491z"/>
			<polygon points="367.141,390.916 355.933,390.916 355.933,413.123 339.116,413.123 339.116,424.388 355.933,424.388 
				355.933,469.39 367.141,469.39 367.141,424.331 383.957,424.331 383.957,413.123 367.141,413.123 			"/>
			<path d="M437.342,413.336h-39.185v11.156h37.264c5.018,0,7.526,2.957,7.526,8.861v0.054h-36.088
				c-9.537,0.035-14.305,4.786-14.305,14.254v7.74c0,9.325,5.157,13.988,15.48,13.988h46.176v-39.611
				C454.141,418.814,448.518,413.336,437.342,413.336z M411.237,458.179c-4.982,0-7.473-2.334-7.473-6.994h-0.056
				c0.037-4.378,2.74-6.566,8.116-6.566h31.133v-5.944L443,458.179H411.237z"/>
			<rect x="467.237" y="390.916" width="11.209" height="78.474"/>
		</g>
	</g>
</g>
</svg>
